<svg width="109" height="131" viewBox="0 0 109 131" fill="none" xmlns="http://www.w3.org/2000/svg">
<path d="M15.367 35.8458H95.0038L102.323 124.483H7.16913L15.367 35.8458Z" fill="#280138"/>
<path d="M108.362 125.529L100.391 36.7545C100.173 34.3302 98.1412 32.4732 95.7075 32.4732H79.2687V25.0591C79.2687 11.2415 68.0278 0 54.2108 0C40.3945 0 29.1549 11.2415 29.1549 25.0591V32.4732H12.7048C10.271 32.4732 8.23914 34.3302 8.02159 36.7545L0.018801 125.878C-0.0990623 127.193 0.341044 128.497 1.23191 129.471C2.12279 130.445 3.38229 131 4.70198 131H103.711C103.715 131 103.72 131 103.723 131C106.321 131 108.425 128.895 108.425 126.298C108.425 126.037 108.403 125.779 108.362 125.529ZM38.5588 25.0591C38.5588 16.4269 45.5805 9.40398 54.2115 9.40398C62.8431 9.40398 69.8653 16.4269 69.8653 25.0591V32.4732H38.5588V25.0591ZM9.84534 121.597L17.0036 41.8772H29.1549V50.2856C29.1549 52.8824 31.2595 54.9876 33.8568 54.9876C36.4542 54.9876 38.5588 52.8824 38.5588 50.2856V41.8772H69.8653V50.2856C69.8653 52.8824 71.9699 54.9876 74.5673 54.9876C77.1647 54.9876 79.2693 52.8824 79.2693 50.2856V41.8772H91.4092L98.5675 121.597H9.84534Z" fill="#280138"/>
</svg>
