<svg width="24" height="24" viewBox="0 0 24 24" fill="none" xmlns="http://www.w3.org/2000/svg">
<path d="M22.19 15.3L19.3 12.42C19.0764 12.1966 18.803 12.0294 18.5023 11.932C18.2016 11.8347 17.8821 11.81 17.57 11.86C17.2734 11.9092 16.9916 12.0247 16.7458 12.1978C16.4999 12.3709 16.2963 12.5973 16.15 12.86L15.53 13.66C15.4841 13.718 15.4266 13.7658 15.3612 13.8002C15.2957 13.8347 15.2238 13.855 15.15 13.86C15.078 13.8646 15.0059 13.8536 14.9386 13.8277C14.8713 13.8018 14.8103 13.7617 14.76 13.71L10.32 9.24C10.2691 9.18703 10.2296 9.12424 10.2038 9.05546C10.178 8.98669 10.1665 8.91337 10.17 8.84C10.1763 8.76794 10.1973 8.69794 10.2317 8.63431C10.2661 8.57068 10.3132 8.51476 10.37 8.47L11.17 7.85C11.4327 7.70371 11.6591 7.50006 11.8322 7.25421C12.0053 7.00836 12.1208 6.72664 12.17 6.43C12.2217 6.11634 12.1978 5.79488 12.1004 5.49228C12.003 5.18968 11.8349 4.91465 11.61 4.69L8.70001 1.81C8.17013 1.3056 7.46658 1.02428 6.73501 1.02428C6.00344 1.02428 5.29989 1.3056 4.77001 1.81L1.66001 4.93C0.790009 5.79 0.780009 7.26 1.66001 9.31C2.18174 10.6294 2.92962 11.8476 3.87001 12.91L11.13 20.17C12.1924 21.1104 13.4106 21.8583 14.73 22.38C15.5502 22.7478 16.4321 22.9581 17.33 23C17.6561 23.018 17.9824 22.9687 18.2887 22.8552C18.5949 22.7416 18.8745 22.5663 19.11 22.34L22.23 19.23C22.7432 18.7022 23.0269 17.9929 23.0194 17.2568C23.012 16.5206 22.7138 15.8173 22.19 15.3ZM20.74 17.78L17.62 20.89C17.03 21.32 13.74 19.89 12.54 18.72L5.28001 11.46C4.08001 10.25 2.68001 7 3.11001 6.38L6.22001 3.26C6.35648 3.13491 6.53488 3.06553 6.72001 3.06553C6.90513 3.06553 7.08354 3.13491 7.22001 3.26L10.1 6.09L9.10001 6.85C8.8122 7.07479 8.57457 7.35727 8.40236 7.67931C8.23015 8.00134 8.12716 8.35582 8.10001 8.72C8.07562 9.08753 8.1299 9.45603 8.25923 9.80092C8.38856 10.1458 8.58997 10.4591 8.85001 10.72L13.29 15.16C13.5493 15.4222 13.8624 15.625 14.2077 15.7545C14.553 15.884 14.9222 15.937 15.29 15.91C15.6542 15.8828 16.0087 15.7799 16.3307 15.6076C16.6527 15.4354 16.9352 15.1978 17.16 14.91L17.83 14.05V14V13.91L20.72 16.79C20.8451 16.9234 20.9163 17.0984 20.92 17.2812C20.9237 17.464 20.8596 17.6417 20.74 17.78Z" fill="white"/>
</svg>
