<svg width="150" height="150" viewBox="0 0 150 150" fill="none" xmlns="http://www.w3.org/2000/svg">
<path d="M145.967 65.0516L131.99 51.0753V31.2358C131.99 27.6195 130.554 24.1513 127.997 21.5942C125.44 19.037 121.971 17.6005 118.355 17.6005H98.5838L84.6076 3.96507C82.0528 1.42547 78.5969 0 74.9946 0C71.3923 0 67.9364 1.42547 65.3817 3.96507L51.4054 17.6686H31.5659C27.9496 17.6686 24.4814 19.1052 21.9242 21.6623C19.3671 24.2195 17.9305 27.6877 17.9305 31.304V51.0753L4.29515 65.0516C2.9778 66.2892 1.91967 67.7765 1.1823 69.4268C0.44493 71.0771 0.043041 72.8575 4.34773e-06 74.6645C-0.00286905 78.2653 1.41862 81.7209 3.95427 84.2775L17.9987 98.2537V118.093C17.9987 121.71 19.4353 125.178 21.9924 127.735C24.5495 130.292 28.0178 131.729 31.6341 131.729H51.4054L65.3817 145.705C67.9382 148.24 71.3939 149.662 74.9946 149.659C78.5953 149.662 82.051 148.24 84.6076 145.705L98.5838 131.66H118.423C122.04 131.66 125.508 130.224 128.065 127.667C130.622 125.11 132.059 121.641 132.059 118.025V98.2537L146.035 84.2775C148.575 81.7227 150 78.2668 150 74.6645C150 71.0622 148.575 67.6063 146.035 65.0516H145.967ZM118.355 92.6632V118.025H92.9933L74.9946 136.024L56.9959 118.025H31.6341V92.6632L13.6354 74.6645L31.6341 56.6658V31.304H56.9959L74.9946 13.3053L92.9933 31.304H118.355V56.6658L136.354 74.6645L118.355 92.6632Z" fill="white"/>
<path d="M68.1813 79.6415L52.5688 64.029L42.8877 73.642L68.1813 98.9356L107.11 60.0066L97.4292 50.3936L68.1813 79.6415Z" fill="white"/>
</svg>
