<svg width="30" height="30" viewBox="0 0 30 30" fill="none" xmlns="http://www.w3.org/2000/svg">
<path d="M27.9 5.7H2.1C1.77 5.7 1.5 5.97 1.5 6.3V23.7C1.5 23.7 1.5 23.7 1.5 23.73C1.5 23.76 1.5 23.76 1.5 23.79C1.5 23.82 1.5 23.82 1.5 23.85C1.5 23.88 1.5 23.88 1.53 23.91C1.53 23.94 1.53 23.94 1.56 23.97C1.56 24 1.59 24 1.59 24.03C1.59 24.06 1.62 24.06 1.62 24.09C1.62 24.09 1.62 24.09 1.62 24.12C1.62 24.12 1.62 24.12 1.65 24.15L1.68 24.18L1.71 24.21C1.71 24.21 1.74 24.24 1.77 24.24C1.8 24.24 1.8 24.27 1.83 24.27C1.86 24.27 1.86 24.3 1.89 24.3C1.92 24.3 1.92 24.3 1.95 24.33C1.98 24.33 1.98 24.33 2.01 24.33C2.04 24.33 2.04 24.33 2.07 24.33H2.1H27.9C27.96 24.33 27.99 24.33 28.02 24.33H28.05C28.08 24.33 28.11 24.3 28.14 24.3L28.17 24.27C28.2 24.27 28.23 24.24 28.23 24.21L28.26 24.18C28.29 24.15 28.29 24.15 28.32 24.12L28.35 24.09C28.35 24.09 28.35 24.09 28.35 24.06C28.35 24.03 28.38 24.03 28.38 24C28.38 24 28.41 23.97 28.41 23.94C28.41 23.91 28.41 23.91 28.44 23.88C28.47 23.85 28.44 23.85 28.47 23.82C28.47 23.79 28.47 23.79 28.47 23.76C28.47 23.73 28.47 23.73 28.47 23.7C28.47 23.7 28.47 23.7 28.47 23.67V6.3C28.5 5.97 28.23 5.7 27.9 5.7ZM2.7 9.63L10.8 16.05L2.7 22.47V9.63ZM3.84 23.1L11.79 16.8L14.64 19.05C14.76 19.14 14.88 19.17 15 19.17C15.12 19.17 15.27 19.14 15.36 19.05L18.21 16.8L26.16 23.1H3.84ZM27.3 22.47L19.2 16.05L27.3 9.63V22.47ZM27.3 8.1L26.94 8.4L15 17.85L3.06 8.4L2.7 8.1V6.9H27.3V8.1Z" fill="white"/>
</svg>
