<svg width="180" height="180" viewBox="0 0 180 180" fill="none" xmlns="http://www.w3.org/2000/svg">
<circle cx="90" cy="90" r="90" fill="#F2E6F8"/>
<path d="M51.3671 49.8458H131.004L138.323 138.483H43.1692L51.3671 49.8458Z" fill="#280138"/>
<path d="M144.362 139.529L136.391 50.7545C136.173 48.3302 134.141 46.4732 131.707 46.4732H115.269V39.0591C115.269 25.2415 104.028 14 90.2108 14C76.3945 14 65.1549 25.2415 65.1549 39.0591V46.4732H48.7048C46.271 46.4732 44.2391 48.3302 44.0216 50.7545L36.0188 139.878C35.9009 141.193 36.341 142.497 37.2319 143.471C38.1228 144.445 39.3823 145 40.702 145H139.711C139.715 145 139.72 145 139.723 145C142.321 145 144.425 142.895 144.425 140.298C144.425 140.037 144.403 139.779 144.362 139.529ZM74.5588 39.0591C74.5588 30.4269 81.5805 23.404 90.2115 23.404C98.8431 23.404 105.865 30.4269 105.865 39.0591V46.4732H74.5588V39.0591ZM45.8453 135.597L53.0036 55.8772H65.1549V64.2856C65.1549 66.8824 67.2595 68.9876 69.8568 68.9876C72.4542 68.9876 74.5588 66.8824 74.5588 64.2856V55.8772H105.865V64.2856C105.865 66.8824 107.97 68.9876 110.567 68.9876C113.165 68.9876 115.269 66.8824 115.269 64.2856V55.8772H127.409L134.568 135.597H45.8453V135.597Z" fill="#280138"/>
</svg>
