<svg width="36" height="43" viewBox="0 0 36 43" fill="none" xmlns="http://www.w3.org/2000/svg">
<path d="M5.02768 11.7271H31.0812L33.4758 40.7249H2.3457L5.02768 11.7271Z" fill="white"/>
<path d="M35.4511 41.0672L32.8432 12.0244C32.772 11.2312 32.1073 10.6237 31.3111 10.6237H25.933V8.19818C25.933 3.67771 22.2555 0 17.7353 0C13.2152 0 9.53812 3.67771 9.53812 8.19818V10.6237H4.15641C3.3602 10.6237 2.69546 11.2312 2.62429 12.0244L0.00615082 41.1814C-0.0324086 41.6118 0.111574 42.0382 0.403025 42.3569C0.694477 42.6756 1.10653 42.8571 1.53827 42.8571H33.9294C33.9306 42.8571 33.9323 42.8571 33.9335 42.8571C34.7833 42.8571 35.4718 42.1684 35.4718 41.3189C35.4716 41.2333 35.4646 41.149 35.4511 41.0672ZM12.6147 8.19818C12.6147 5.37412 14.9118 3.07655 17.7355 3.07655C20.5593 3.07655 22.8567 5.37412 22.8567 8.19818V10.6237H12.6147V8.19818ZM3.22094 39.7808L5.56281 13.7003H9.53812V16.4511C9.53812 17.3007 10.2267 17.9894 11.0764 17.9894C11.9261 17.9894 12.6147 17.3007 12.6147 16.4511V13.7003H22.8567V16.4511C22.8567 17.3007 23.5452 17.9894 24.395 17.9894C25.2447 17.9894 25.9333 17.3007 25.9333 16.4511V13.7003H29.9049L32.2467 39.7808H3.22094Z" fill="white"/>
</svg>
