<svg width="18" height="22" viewBox="0 0 18 22" fill="none" xmlns="http://www.w3.org/2000/svg">
<path d="M2.51384 5.86353H15.5406L16.7379 20.3625H1.17285L2.51384 5.86353Z" fill="white"/>
<path d="M17.7255 20.5336L16.4216 6.01219C16.386 5.61562 16.0536 5.31187 15.6555 5.31187H12.9665V4.09909C12.9665 1.83885 11.1278 0 8.86764 0C6.6076 0 4.76906 1.83885 4.76906 4.09909V5.31187H2.07821C1.6801 5.31187 1.34773 5.61562 1.31215 6.01219L0.00307541 20.5907C-0.0162043 20.8059 0.0557869 21.0191 0.201513 21.1784C0.347239 21.3378 0.553265 21.4286 0.769136 21.4286H16.9647C16.9653 21.4286 16.9661 21.4286 16.9668 21.4286C17.3916 21.4286 17.7359 21.0842 17.7359 20.6594C17.7358 20.6167 17.7323 20.5745 17.7255 20.5336ZM6.30733 4.09909C6.30733 2.68706 7.45591 1.53827 8.86774 1.53827C10.2797 1.53827 11.4284 2.68706 11.4284 4.09909V5.31187H6.30733V4.09909ZM1.61047 19.8904L2.7814 6.85014H4.76906V8.22556C4.76906 8.65033 5.11333 8.9947 5.5382 8.9947C5.96307 8.9947 6.30733 8.65033 6.30733 8.22556V6.85014H11.4284V8.22556C11.4284 8.65033 11.7726 8.9947 12.1975 8.9947C12.6224 8.9947 12.9666 8.65033 12.9666 8.22556V6.85014H14.9524L16.1234 19.8904H1.61047Z" fill="white"/>
</svg>
