<svg width="36" height="36" viewBox="0 0 36 36" fill="none" xmlns="http://www.w3.org/2000/svg">
<path d="M25.875 10.125L24.3 6.8625C23.9625 6.075 23.175 5.625 22.275 5.625H13.8375C12.9375 5.625 12.15 6.075 11.8125 6.8625L10.125 10.125H5.625C4.3875 10.125 3.375 11.1375 3.375 12.375V28.125C3.375 29.3625 4.3875 30.375 5.625 30.375H30.375C31.6125 30.375 32.625 29.3625 32.625 28.125V12.375C32.625 11.1375 31.6125 10.125 30.375 10.125H25.875Z" stroke="#280138" stroke-width="2" stroke-miterlimit="10" stroke-linejoin="round"/>
<path d="M18 25.875C21.7279 25.875 24.75 22.8529 24.75 19.125C24.75 15.3971 21.7279 12.375 18 12.375C14.2721 12.375 11.25 15.3971 11.25 19.125C11.25 22.8529 14.2721 25.875 18 25.875Z" stroke="#280138" stroke-width="2" stroke-miterlimit="10" stroke-linejoin="round"/>
<path d="M5.625 13.5H9" stroke="#280138" stroke-width="2" stroke-miterlimit="10" stroke-linejoin="round"/>
</svg>
