<svg width="23" height="23" viewBox="0 0 23 23" fill="none" xmlns="http://www.w3.org/2000/svg">
<path d="M20.8293 11.9209C23.1058 9.61907 23.1058 5.87375 20.8293 3.57191C19.7253 2.45503 18.2565 1.84001 16.6944 1.84001C16.6939 1.84001 16.6939 1.84001 16.6939 1.84001C15.1317 1.84001 13.6625 2.45503 12.558 3.57191L11.5 4.64141L10.442 3.57191C9.33758 2.45503 7.8688 1.84001 6.30618 1.84001C4.74402 1.84001 3.27524 2.45503 2.17078 3.57191C-0.105756 5.87375 -0.105756 9.61907 2.17078 11.9209L11.5 21.3541L20.8293 11.9209ZM2.8249 4.21867C3.75502 3.27797 4.99196 2.76001 6.30618 2.76001C7.62086 2.76001 8.8578 3.27797 9.78792 4.21867L11.5 5.95011L13.2122 4.21867C14.1423 3.27797 15.3792 2.76001 16.6939 2.76001C18.0086 2.76001 19.2451 3.27797 20.1752 4.21867C22.0994 6.16401 22.0994 9.32881 20.1752 11.2742L11.5 20.0459L2.8249 11.2742C0.900724 9.32881 0.900724 6.16355 2.8249 4.21867Z" fill="#3B0152"/>
</svg>
