<svg width="50" height="50" viewBox="0 0 50 50" fill="none" xmlns="http://www.w3.org/2000/svg">
<path d="M21.8987 23.2395H21.8668V17.8923C21.8668 17.4793 21.5324 17.145 21.1194 17.145H20.1653V9.95786C20.1653 9.76006 20.0865 9.56973 19.9465 9.42922L14.1356 3.61525C13.9218 3.4015 13.6009 3.33673 13.3209 3.45332C13.0414 3.56891 12.8596 3.84145 12.8596 4.14388V17.145H11.9059C11.4929 17.145 11.1586 17.4793 11.1586 17.8923V23.2395H11.1247C10.7116 23.2395 10.3773 23.5738 10.3773 23.9868V46.2881C10.3773 46.7012 10.7116 47.0355 11.1247 47.0355H21.8991C22.3122 47.0355 22.6465 46.7012 22.6465 46.2881V23.9868C22.646 23.5738 22.3117 23.2395 21.8987 23.2395ZM14.3543 5.94901L18.6705 10.2673V17.145H14.3543V5.94901ZM12.6533 18.6397H20.372V23.2395H12.6533V18.6397ZM21.1513 45.5403H11.8715V24.7337H11.9054H21.1189H21.1508V45.5403H21.1513Z" fill="#3B0152"/>
<path d="M37.5508 24.7681V19.8225C37.5508 19.4095 37.2165 19.0752 36.8035 19.0752H33.9271V13.2278H35.382C35.795 13.2278 36.1293 12.8935 36.1293 12.4804C36.1293 12.0674 35.795 11.7331 35.382 11.7331H33.9271V9.98576H35.382C35.795 9.98576 36.1293 9.65144 36.1293 9.23839C36.1293 8.82535 35.795 8.49103 35.382 8.49103H33.9271V6.7427H35.382C35.795 6.7427 36.1293 6.40838 36.1293 5.99534C36.1293 5.5823 35.795 5.24798 35.382 5.24798H33.9271V4.09953C33.9271 3.68649 33.5928 3.35217 33.1797 3.35217C32.7667 3.35217 32.4324 3.68649 32.4324 4.09953V5.24798H30.9775C30.5645 5.24798 30.2302 5.5823 30.2302 5.99534C30.2302 6.40838 30.5645 6.7427 30.9775 6.7427H32.4324V8.49103H30.9775C30.5645 8.49103 30.2302 8.82535 30.2302 9.23839C30.2302 9.65144 30.5645 9.98576 30.9775 9.98576H32.4324V11.7331H30.9775C30.5645 11.7331 30.2302 12.0674 30.2302 12.4804C30.2302 12.8935 30.5645 13.2278 30.9775 13.2278H32.4324V19.0752H29.556C29.143 19.0752 28.8087 19.4095 28.8087 19.8225V24.7681C28.4594 24.8309 28.1938 25.1348 28.1938 25.502V46.2876C28.1938 46.7007 28.5282 47.035 28.9412 47.035H37.4183C37.8313 47.035 38.1656 46.7007 38.1656 46.2876V25.502C38.1656 25.1348 37.9001 24.8309 37.5508 24.7681ZM30.3034 20.5699H36.0561V24.7546H30.3034V20.5699ZM36.6709 45.5402H29.6886V26.2493H36.6709V45.5402Z" fill="#3B0152"/>
</svg>
