<svg width="17" height="16" viewBox="0 0 17 16" fill="none" xmlns="http://www.w3.org/2000/svg">
<path d="M10.3302 1.0225C10.2153 1.05325 10.1064 1.1053 9.89306 1.23422C9.6446 1.38561 9.54264 1.44002 9.41489 1.4897C8.87344 1.70023 8.28395 1.60442 7.44482 1.16917C7.32645 1.10766 7.22449 1.05799 7.21746 1.05799C7.21042 1.05799 7.05924 1.11476 6.88227 1.18336C5.75484 1.6198 5.21691 1.82797 4.82782 1.97936L4.38716 2.15205L2.83313 3.94867L1.28027 5.74648L1.32364 5.79733C1.34708 5.82572 1.84399 6.38754 2.42763 7.04752L3.48826 8.24803H3.64765L3.80703 8.24921L4.08713 7.95234L4.36723 7.65428L4.37309 11.432L4.37895 15.2098L4.41763 15.3103C4.43872 15.3659 4.46099 15.4156 4.46568 15.4203C4.47037 15.4251 6.39942 15.4239 8.75156 15.4156L13.0269 15.4014L13.1535 15.3127L13.28 15.2228V14.8798C13.28 14.6906 13.2742 14.0436 13.2683 13.4416C13.2589 12.4539 13.2507 11.6568 13.2226 8.67501C13.2179 8.16405 13.2156 7.74417 13.2168 7.7418C13.2191 7.73944 13.3609 7.87546 13.532 8.04341C13.7043 8.21255 13.8508 8.35093 13.8578 8.35211C13.866 8.35448 13.9258 8.34383 13.9926 8.32846L14.1133 8.30244L15.1962 7.07827L16.2803 5.85411V5.67078V5.48745L14.8516 3.92028L13.423 2.35312L12.3354 1.85754C11.7366 1.58432 11.0685 1.27916 10.8506 1.17981C10.6326 1.08046 10.4462 0.998848 10.4345 1.00003C10.424 1.00003 10.3771 1.01068 10.3302 1.0225Z" stroke="#3B0152" stroke-linejoin="round"/>
</svg>
