<svg width="70" height="35" viewBox="0 0 70 35" fill="none" xmlns="http://www.w3.org/2000/svg">
<path d="M20.5882 35H2.36078C1.04314 35 0 33.8288 0 32.3494V26.2469C0 25.0141 0.494118 23.8429 1.37255 23.0416L1.26274 13.4255V11.2681C1.26274 8.67911 3.18431 6.46002 5.4902 6.46002C9.33333 6.39838 16.8549 5.5354 23.9922 0.604086C25.2549 -0.258894 26.7922 -0.197253 27.8902 0.78901L38.4314 9.72702C39.4196 10.59 39.749 12.0694 39.2549 13.3022L39.0902 13.7954C40.9569 15.0282 47.6 18.7883 58.5804 18.7883H63.851C66.9255 18.7883 69.451 21.6238 69.451 25.0757V26.3086L69.7255 26.5551C69.8902 26.7401 70 26.9866 70 27.2948V30.2536C70 31.4248 69.2314 32.4727 68.1882 32.7193C64.2353 33.6439 50.2353 36.4178 37.2235 34.0754C27.7255 32.3494 24.2667 31.9796 23.0588 31.8563V32.1029C23.1686 33.7055 22.0157 35 20.5882 35ZM2.9098 13.3639L3.01961 23.4731C3.01961 23.7813 2.8549 24.0895 2.63529 24.2744L2.58039 24.336C2.03137 24.7675 1.64706 25.4456 1.64706 26.2469V32.3494C1.64706 32.7809 1.97647 33.1508 2.36078 33.1508H20.5333C21.0275 33.1508 21.4667 32.6576 21.4667 32.1029V30.9933C21.4667 30.7467 21.5765 30.5002 21.6863 30.3769C22.0157 29.9454 22.3451 29.5756 37.498 32.2878C50.2353 34.5685 63.9608 31.8563 67.8588 30.9317C68.1333 30.87 68.3529 30.6235 68.3529 30.2536V27.7263L68.0784 27.4797C67.9137 27.2948 67.8039 27.0483 67.8039 26.7401V25.0757C67.8039 22.6101 66.0471 20.6376 63.851 20.6376H58.5804C44.9098 20.6376 37.8824 15.1515 37.5529 14.9049C37.2235 14.6583 37.1137 14.1652 37.2784 13.7954L37.7725 12.5625C37.9373 12.0694 37.8274 11.5146 37.4431 11.2064L26.902 2.20676C26.298 1.71363 25.4745 1.65199 24.8706 2.14512C17.4588 7.26136 9.55294 8.18598 5.5451 8.24762C4.11765 8.24762 2.9098 9.60373 2.9098 11.2064V13.3639Z" fill="#3B0152"/>
<path d="M50.0707 30.0071C44.3609 30.0071 39.0354 29.5139 36.455 28.8359C30.7452 27.3565 11.6393 25.199 11.4746 25.1374C11.0354 25.0758 10.706 24.6443 10.7609 24.1511C10.9256 21.0074 10.2118 18.5418 8.72948 16.8774C6.20399 14.0419 2.14125 14.2885 2.14125 14.2885C1.70203 14.3501 1.31772 13.9187 1.26282 13.4255C1.26282 12.9324 1.59223 12.5009 2.03144 12.4393C2.25105 12.4393 6.86282 12.1927 9.88242 15.583C11.5844 17.4939 12.4079 20.1444 12.4079 23.4114C16.0863 23.8429 31.6236 25.6922 36.8393 27.0483C42.7138 28.5893 62.753 29.0208 68.1883 25.199C68.5726 24.9525 69.0667 25.0758 69.3412 25.5073C69.5609 25.9387 69.451 26.4935 69.0667 26.8017C65.6628 29.1441 57.5373 30.0071 50.0707 30.0071Z" fill="#3B0152"/>
<path d="M11.5844 25.199H11.5295L2.14131 24.3976C1.70209 24.336 1.37268 23.9045 1.37268 23.4114C1.42758 22.9182 1.8119 22.4867 2.25111 22.5484L11.6393 23.2881C12.0786 23.3497 12.408 23.7812 12.408 24.2743C12.3531 24.7675 12.0237 25.199 11.5844 25.199Z" fill="#3B0152"/>
<path d="M18.5569 26.0003C18.3921 26.0003 18.2274 25.9387 18.1176 25.8771C17.7333 25.6305 17.6235 25.0141 17.8431 24.5826C18.0078 24.2744 21.9608 17.5555 29.1529 17.3089L35.5765 17.124L37.2784 13.6721C37.498 13.2406 37.9921 13.0556 38.3765 13.3022C38.7608 13.5488 38.9255 14.1035 38.7059 14.535L36.7843 18.4801C36.6196 18.7883 36.4 18.9732 36.0706 18.9732L29.2078 19.1581C22.8392 19.3431 19.2706 25.5072 19.2157 25.5689C19.1059 25.8771 18.8314 26.0003 18.5569 26.0003Z" fill="#3B0152"/>
<path d="M26.0235 7.63122C25.8039 7.63122 25.5843 7.56958 25.4195 7.38465C25.0901 7.01481 25.0901 6.46003 25.4195 6.09018L28.6588 2.3917C28.9882 2.02185 29.4823 2.02185 29.8117 2.3917C30.1411 2.76155 30.1411 3.31632 29.8117 3.68617L26.5725 7.38465C26.4078 7.56958 26.2431 7.63122 26.0235 7.63122Z" fill="#3B0152"/>
<path d="M29.2628 10.59C29.0432 10.59 28.8236 10.5284 28.6589 10.3435C28.3295 9.97361 28.3295 9.41884 28.6589 9.04899L32.0079 5.28886C32.3374 4.91901 32.8315 4.91901 33.1609 5.28886C33.4903 5.65871 33.4903 6.21348 33.1609 6.58333L29.8119 10.3435C29.6472 10.5284 29.4825 10.59 29.2628 10.59Z" fill="#3B0152"/>
<path d="M32.6117 13.4255C32.3921 13.4255 32.1725 13.3022 32.0078 13.1173C31.6784 12.7474 31.6784 12.1927 32.0078 11.8228L35.4117 8.12433C35.7411 7.75448 36.2352 7.75448 36.5647 8.12433C36.8941 8.49418 36.8941 9.04896 36.5647 9.4188L33.1607 13.1173C32.996 13.3639 32.7764 13.4255 32.6117 13.4255Z" fill="#3B0152"/>
</svg>
