<svg width="50" height="50" viewBox="0 0 50 50" fill="none" xmlns="http://www.w3.org/2000/svg">
<path d="M38.9623 38.5042C42.3961 34.9568 44.5157 30.1295 44.5157 24.8139C44.5157 19.5186 42.4119 14.7087 39.001 11.1648C38.9782 11.1345 38.9653 11.0988 38.937 11.0715C38.9176 11.0531 38.8928 11.0461 38.8725 11.0298C35.2948 7.38113 30.3152 5.11215 24.8134 5.11215C13.9499 5.11215 5.11169 13.9504 5.11169 24.8139C5.11169 30.0516 7.17026 34.8144 10.5152 38.3469C10.5514 38.4581 10.6055 38.5638 10.6948 38.6511C10.7752 38.729 10.8695 38.7801 10.9683 38.8149C14.5291 42.3365 19.4209 44.5156 24.8129 44.5156C30.3261 44.5156 35.3147 42.2362 38.8943 38.5742C38.9047 38.5653 38.9181 38.5618 38.9281 38.5523C38.944 38.5385 38.9489 38.5191 38.9623 38.5042ZM6.61988 25.5583H15.8105C15.6626 29.796 14.0695 33.7975 11.2641 36.9677C8.52212 33.9146 6.79705 29.933 6.61988 25.5583ZM43.008 24.0695H33.8199C33.9901 19.8466 35.5985 15.865 38.4085 12.7117C41.1241 15.7583 42.8318 19.7191 43.008 24.0695ZM32.3311 24.0695H25.5276V6.61935C30.1107 6.79702 34.2621 8.67592 37.3712 11.6412C34.272 15.0804 32.5033 19.4422 32.3311 24.0695ZM24.0382 24.0695H17.2953C17.1008 19.4898 15.3256 15.131 12.2437 11.7161C12.2333 11.7047 12.2209 11.6963 12.21 11.6854C15.3107 8.70769 19.4571 6.81339 24.0387 6.62034V24.0695H24.0382ZM17.2993 25.5583H24.0387V43.0074C19.5043 42.8164 15.3961 40.9588 12.3057 38.0337C15.3971 34.5782 17.1494 30.1985 17.2993 25.5583ZM25.5271 25.5583H32.3306C32.5018 30.1861 34.2705 34.5489 37.3693 37.9886C34.2601 40.9528 30.1092 42.8313 25.5271 43.0089V25.5583ZM33.8199 25.5583H43.008C42.8318 29.9097 41.1231 33.871 38.407 36.9186C35.5966 33.7648 33.9886 29.7816 33.8199 25.5583ZM11.1777 12.7598C13.9871 15.8938 15.6139 19.8794 15.8065 24.0695H6.61988C6.79507 19.7419 8.48688 15.8 11.1777 12.7598Z" fill="#3B0152"/>
</svg>
