<svg width="50" height="50" viewBox="0 0 50 50" fill="none" xmlns="http://www.w3.org/2000/svg">
<path d="M13.8862 11.1084C13.8862 8.43281 11.7004 6.25607 9.01382 6.25607C6.32721 6.25607 4.14148 8.43281 4.14148 11.1084C4.14148 13.7839 6.32721 15.9607 9.01382 15.9607C11.7004 15.9607 13.8862 13.7839 13.8862 11.1084ZM5.60318 11.1084C5.60318 9.23538 7.1331 7.71175 9.01382 7.71175C10.8945 7.71175 12.4245 9.23538 12.4245 11.1084C12.4245 12.9813 10.8945 14.505 9.01382 14.505C7.1331 14.505 5.60318 12.9813 5.60318 11.1084Z" fill="#3B0152"/>
<path d="M41.415 13.5345C39.2658 13.5345 37.5171 15.276 37.5171 17.4164C37.5171 19.5567 39.2658 21.2982 41.415 21.2982C43.5642 21.2982 45.3128 19.5567 45.3128 17.4164C45.3128 15.276 43.5642 13.5345 41.415 13.5345ZM41.415 19.8425C40.0717 19.8425 38.9788 18.7541 38.9788 17.4164C38.9788 16.0786 40.0717 14.9902 41.415 14.9902C42.7583 14.9902 43.8511 16.0786 43.8511 17.4164C43.8511 18.7541 42.7583 19.8425 41.415 19.8425Z" fill="#3B0152"/>
<path d="M27.5516 18.3703C29.2389 19.5795 31.6098 19.4281 33.1246 17.9186C33.9402 17.1063 34.3894 16.0267 34.3894 14.8781C34.3894 13.7296 33.9402 12.6499 33.1246 11.8377C32.44 11.1559 31.544 10.7279 30.591 10.6134C30.4765 9.66432 30.0467 8.77198 29.3617 8.08975C28.546 7.27748 27.4619 6.83009 26.3087 6.83009C25.1554 6.83009 24.0708 7.27748 23.2552 8.08975C21.7472 9.59105 21.5898 11.9362 22.8064 13.6354L14.4294 21.9785C12.7431 20.7698 10.3717 20.9207 8.85641 22.4302C8.04078 23.2425 7.59155 24.3221 7.59155 25.4712C7.59155 26.6192 8.04078 27.6993 8.85641 28.5116C9.54098 29.1934 10.4375 29.6213 11.3905 29.7354C11.5055 30.6845 11.9348 31.5773 12.6198 32.259C13.4354 33.0713 14.5195 33.5187 15.6728 33.5187C16.8261 33.5187 17.9102 33.0713 18.7258 32.259C20.2338 30.7573 20.3912 28.4121 19.1746 26.7133L27.5516 18.3703ZM17.6924 27.2068C18.2318 27.744 18.529 28.4582 18.529 29.2186C18.529 29.978 18.2318 30.6922 17.6924 31.2299C16.5786 32.3386 14.7671 32.3386 13.6532 31.2299C13.0846 30.6636 12.783 29.877 12.8249 29.0716C12.8357 28.8658 12.7582 28.6654 12.6115 28.5194C12.4741 28.3825 12.288 28.3064 12.0946 28.3064C12.0824 28.3064 12.0697 28.3068 12.0571 28.3073C11.2478 28.3481 10.458 28.0482 9.88935 27.4824C8.77602 26.3737 8.77602 24.5691 9.88935 23.4599C10.4287 22.9227 11.1459 22.6267 11.9089 22.6267C12.6719 22.6267 13.3892 22.9227 13.9285 23.4609C14.063 23.6074 14.252 23.6928 14.4513 23.6972C14.6521 23.7064 14.8435 23.6249 14.9844 23.4841L24.3134 14.193C24.4518 14.0552 24.5205 13.8606 24.5191 13.6655C24.5176 13.4705 24.4294 13.2773 24.2886 13.1415C23.7492 12.6043 23.452 11.8901 23.452 11.1302C23.452 10.3703 23.7492 9.65607 24.2886 9.11892C25.4024 8.00969 27.2144 8.01017 28.3278 9.11892C28.8964 9.68518 29.198 10.4717 29.1561 11.2767C29.1453 11.4825 29.2228 11.6834 29.369 11.8289C29.5152 11.9745 29.7105 12.0521 29.9239 12.0415C30.7274 11.9949 31.5226 12.3006 32.0912 12.8668C33.2045 13.9761 33.2045 15.7802 32.0912 16.8894C31.5518 17.4265 30.8346 17.7225 30.0716 17.7225C29.3086 17.7225 28.5914 17.4265 28.0783 16.9175C28.0686 16.9064 28.0476 16.8826 28.0369 16.8719C27.9005 16.7322 27.7134 16.6526 27.518 16.6511C27.3163 16.6376 27.1345 16.7264 26.9962 16.8642L17.6671 26.1553C17.5287 26.2931 17.4605 26.4882 17.4619 26.6828C17.4634 26.8774 17.5516 27.0714 17.6924 27.2068Z" fill="#3B0152"/>
<path d="M11.6551 36.3786C11.3696 36.0943 10.9072 36.0943 10.6217 36.3786L8.94611 38.0473L7.27051 36.3786C6.98499 36.0943 6.52261 36.0943 6.23709 36.3786C5.95157 36.663 5.95157 37.1235 6.23709 37.4078L7.91269 39.0765L6.2366 40.7457C5.95108 41.03 5.95108 41.4905 6.2366 41.7749C6.37936 41.917 6.56646 41.9879 6.75356 41.9879C6.94065 41.9879 7.12775 41.917 7.27051 41.7749L8.94611 40.1062L10.6217 41.7749C10.7645 41.917 10.9516 41.9879 11.1387 41.9879C11.3258 41.9879 11.5129 41.917 11.6556 41.7749C11.9411 41.4905 11.9411 41.03 11.6556 40.7457L9.98002 39.077L11.6556 37.4083C11.9407 37.1235 11.9407 36.663 11.6551 36.3786Z" fill="#3B0152"/>
<path d="M39.1366 9.00975C39.2794 9.15192 39.4665 9.22276 39.6536 9.22276C39.8407 9.22276 40.0278 9.15192 40.1705 9.00975L41.3589 7.82627L42.5473 9.00975C42.69 9.15192 42.8771 9.22276 43.0642 9.22276C43.2513 9.22276 43.4384 9.15192 43.5812 9.00975C43.8667 8.72589 43.8667 8.26443 43.5812 7.98057L42.3928 6.7971L43.5812 5.61362C43.8667 5.32976 43.8667 4.86831 43.5812 4.58445C43.2957 4.30011 42.8333 4.30011 42.5477 4.58445L41.3594 5.76793L40.171 4.58445C39.8855 4.30011 39.4231 4.30011 39.1376 4.58445C38.8521 4.86831 38.8521 5.32976 39.1376 5.61362L40.326 6.7971L39.1376 7.98057C38.8511 8.26492 38.8511 8.72589 39.1366 9.00975Z" fill="#3B0152"/>
<path d="M33.0301 25.1693C27.2539 25.1693 22.5541 29.8499 22.5541 35.6023C22.5541 41.3547 27.2539 46.0352 33.0301 46.0352C38.8063 46.0352 43.5061 41.3547 43.5061 35.6023C43.5061 29.8499 38.8063 25.1693 33.0301 25.1693ZM41.6965 33.1611C41.089 33.491 40.438 33.722 39.7515 33.8467C39.3637 33.9176 38.9646 33.953 38.5641 33.953C35.1574 33.953 32.3475 31.4099 32.0288 28.0361C32.0093 27.8333 31.9991 27.6246 31.9991 27.416C31.9991 27.1704 32.0152 26.9254 32.0425 26.6823C32.367 26.6469 32.6959 26.6255 33.0296 26.6255C37.1502 26.625 40.6251 29.3952 41.6965 33.1611ZM24.3851 38.1269C25.0088 37.78 25.6792 37.5359 26.3872 37.4068C26.7765 37.336 27.176 37.3001 27.575 37.3001C30.9813 37.3001 33.7912 39.8432 34.1103 43.215C34.1293 43.4203 34.1395 43.6275 34.1395 43.8371C34.1395 44.0618 34.1274 44.2864 34.1045 44.5091C33.7517 44.5509 33.395 44.579 33.0311 44.579C28.9403 44.5795 25.4833 41.8506 24.3851 38.1269ZM35.5813 44.2078C35.5871 44.0841 35.6008 43.9613 35.6008 43.8376C35.6008 43.5848 35.5891 43.33 35.5652 43.0797C35.1749 38.9552 31.7394 35.8449 27.575 35.8449C27.0888 35.8449 26.6006 35.8886 26.1245 35.9754C25.4098 36.1055 24.7291 36.3379 24.083 36.6499C24.0426 36.3059 24.0163 35.9575 24.0163 35.6028C24.0163 31.5064 26.7891 28.0492 30.5613 26.9763C30.5535 27.1229 30.5384 27.2689 30.5384 27.416C30.5384 27.6707 30.5506 27.9264 30.5744 28.1739C30.9642 32.2983 34.3997 35.4087 38.5646 35.4087C39.0523 35.4087 39.54 35.365 40.0146 35.2786C40.7055 35.1529 41.3638 34.9307 41.9903 34.6347C42.0249 34.953 42.0449 35.2752 42.0449 35.6023C42.0444 39.6695 39.312 43.1088 35.5813 44.2078Z" fill="#3B0152"/>
</svg>
