<svg width="49" height="54" viewBox="0 0 49 54" fill="none" xmlns="http://www.w3.org/2000/svg">
<path d="M15.2381 0V1.50084V8.08432C6.30391 11.5609 0 20.1175 0 30.2038C0 43.2541 10.7418 53.9999 24.1101 53.9999C37.3406 53.9999 48.2142 43.266 48.2142 30.2038C48.2142 20.1317 41.8663 11.5853 32.9881 8.09611V0H15.2381ZM18.2785 3.00167H29.9476V7.14049C28.085 6.67982 26.1509 6.41111 24.1516 6.40775C24.1377 6.40775 24.1239 6.40775 24.1101 6.40775C22.0936 6.40775 20.1482 6.67891 18.2786 7.13448L18.2785 3.00167ZM24.11 9.42099C24.8116 9.42099 25.5039 9.45746 26.1885 9.52087C26.296 9.52816 26.4017 9.55012 26.5093 9.56469C26.9621 9.61572 27.4076 9.69157 27.8514 9.76957C28.8968 9.96054 29.9229 10.2142 30.9156 10.5492C39.1829 13.3286 45.1857 21.0128 45.1857 30.2063C45.1857 41.6248 35.6755 51.0124 24.1101 51.0124C12.3874 51.0124 3.05241 41.6367 3.05241 30.2063C3.05241 21.0095 8.93661 13.3363 17.2275 10.555C17.2351 10.5525 17.2436 10.5517 17.2512 10.549C18.2592 10.2101 19.3029 9.95562 20.3689 9.76334C20.7698 9.69045 21.1716 9.62869 21.5803 9.58204C21.7361 9.56018 21.8919 9.53812 22.0496 9.52354C22.7265 9.45794 23.4149 9.42366 24.1102 9.42366L24.11 9.42099ZM24.0864 12.499C23.9843 12.5035 23.883 12.518 23.7839 12.5426C14.0848 12.7146 6.41211 20.4424 6.23575 29.8782C6.18506 30.0982 6.18506 30.3266 6.23575 30.5466C6.41616 39.8663 13.9115 47.5086 23.4454 47.8528C23.4474 47.8548 23.4494 47.8568 23.4515 47.8588C23.6615 47.9602 23.8924 48.0125 24.1262 48.0114C24.36 48.0104 24.5904 47.9561 24.7995 47.8528C34.3158 47.4876 42.021 39.6854 42.021 30.2065C42.021 20.6106 34.1273 12.7255 24.4491 12.5428C24.3305 12.5139 24.2087 12.4991 24.0865 12.499H24.0864ZM22.5661 15.6119C22.5776 15.6107 22.5901 15.613 22.6018 15.6119V18.3906C22.5885 18.5954 22.6178 18.8008 22.688 18.9939C22.7583 19.1871 22.8678 19.3641 23.01 19.5138C23.1522 19.6635 23.324 19.7828 23.5148 19.8643C23.7055 19.9459 23.9112 19.9878 24.119 19.9878C24.3269 19.9878 24.5326 19.9459 24.7233 19.8643C24.9141 19.7828 25.0858 19.6635 25.228 19.5138C25.3702 19.3641 25.4798 19.1871 25.5501 18.9939C25.6203 18.8008 25.6496 18.5954 25.6363 18.3906V15.6119C32.5974 16.3211 38.1728 21.8244 38.8909 28.6972H36.0701C35.6673 28.7001 35.282 28.8601 34.9981 29.1423C34.7143 29.4245 34.555 29.8061 34.555 30.2038C34.555 30.6015 34.7143 30.9831 34.9981 31.2653C35.282 31.5476 35.6673 31.7075 36.0701 31.7104H38.8909C38.1729 38.5831 32.5974 44.0866 25.6363 44.7955V42.011C25.6395 41.8094 25.6016 41.6094 25.5247 41.4226C25.4479 41.2359 25.3338 41.0661 25.1891 40.9239C25.0445 40.7816 24.8723 40.6698 24.6828 40.5947C24.4934 40.5195 24.2905 40.4828 24.0864 40.4868C23.6853 40.4961 23.3041 40.6613 23.026 40.9468C22.7479 41.2323 22.5954 41.6149 22.6018 42.011V44.7955C15.5182 44.1089 10.1191 38.5994 9.40655 31.7104H12.1679C12.5708 31.7075 12.9561 31.5476 13.2399 31.2653C13.5237 30.9831 13.683 30.6015 13.683 30.2038C13.683 29.8061 13.5237 29.4245 13.2399 29.1423C12.9561 28.8601 12.5708 28.7001 12.1679 28.6972H9.40655C10.1181 21.8194 15.4995 16.3134 22.5661 15.6119H22.5661ZM24.0864 21.0991C23.6852 21.1084 23.3041 21.2738 23.026 21.5594C22.7479 21.8449 22.5954 22.2275 22.6018 22.6236V29.6175C22.5342 29.8885 22.5445 30.1727 22.6316 30.4383C22.6793 30.6613 22.7779 30.8706 22.9198 31.0504C23.0618 31.2302 23.2433 31.3758 23.4507 31.476L29.1159 37.0747C29.2552 37.224 29.4235 37.3439 29.6109 37.4273C29.7984 37.5107 30.0009 37.5558 30.2064 37.5599C30.412 37.5639 30.6162 37.5268 30.8068 37.4509C30.9975 37.3749 31.1706 37.2618 31.3158 37.1181C31.4609 36.9744 31.5751 36.8033 31.6515 36.6149C31.7278 36.4265 31.7648 36.2248 31.7601 36.0219C31.7554 35.819 31.7092 35.619 31.6242 35.4342C31.5393 35.2494 31.4173 35.0836 31.2657 34.9466L25.6365 29.3888V22.6236C25.6397 22.422 25.6017 22.2217 25.5249 22.035C25.4481 21.8482 25.3339 21.6787 25.1893 21.5365C25.0446 21.3942 24.8724 21.2822 24.683 21.207C24.4935 21.1319 24.2907 21.0952 24.0865 21.0991H24.0864Z" fill="#3B0152"/>
</svg>
