<svg width="25" height="25" viewBox="0 0 25 25" fill="none" xmlns="http://www.w3.org/2000/svg">
<g clip-path="url(#clip0)">
<path d="M22.5776 12.3991C22.2433 12.3991 21.9722 12.6702 21.9722 13.0045V23.7894H15.4764V17.0193C15.4764 16.685 15.2053 16.4139 14.871 16.4139H10.1291C9.79483 16.4139 9.52373 16.685 9.52373 17.0193V22.3875C9.52373 22.7217 9.79483 22.9928 10.1291 22.9928C10.4633 22.9928 10.7344 22.7217 10.7344 22.3875V17.6247H14.2657V23.7894H3.02779V8.97224L12.5 1.3812L22.1989 9.15394C22.4598 9.36309 22.8408 9.32092 23.0499 9.06011C23.2589 8.79921 23.2169 8.41834 22.956 8.20919L12.8785 0.132965C12.6573 -0.0444032 12.3426 -0.0444032 12.1214 0.132965L2.04388 8.20919C1.90052 8.3241 1.81708 8.49774 1.81708 8.68157V24.3946C1.81708 24.7289 2.08807 25 2.42243 25H22.5776C22.9119 25 23.1829 24.7289 23.1829 24.3946V13.0045C23.1829 12.6701 22.9119 12.3991 22.5776 12.3991Z" fill="#3B0152"/>
</g>
<defs>
<clipPath id="clip0">
<rect width="25" height="25" fill="white"/>
</clipPath>
</defs>
</svg>
