<svg width="31" height="30" viewBox="0 0 31 30" fill="none" xmlns="http://www.w3.org/2000/svg">
<path d="M22.9359 20V20.2075L23.0828 20.354L24.6992 21.9665C25.1696 22.4357 24.837 23.25 24.1627 23.25H7.66035C6.99674 23.25 6.65839 22.4433 7.13636 21.9665L8.75276 20.354L8.89964 20.2075V20V13.75C8.89964 10.0753 10.8335 7.12126 14.1533 6.33659L14.5383 6.2456V5.85V5C14.5383 4.23978 15.1528 3.625 15.9178 3.625C16.6828 3.625 17.2973 4.23978 17.2973 5V5.85V6.24528L17.6819 6.3365C20.9899 7.1211 22.9359 10.0882 22.9359 13.75V20ZM17.8598 25.5C17.6353 26.3589 16.8478 27 15.9178 27C14.9784 27 14.197 26.3598 13.975 25.5H17.8598Z" stroke="black"/>
</svg>
